<svg width="654" height="436" viewBox="0 0 654 436" fill="none" xmlns="http://www.w3.org/2000/svg">
<g clip-path="url(#clip0_20_6830)">
<rect x="2.17877" y="0.617554" width="670.096" height="433.418" rx="6.56964" transform="rotate(0.168167 2.17877 0.617554)" fill="#5CAFFC"/>
<path d="M26.7881 365.213L4.59424 293.016L26.6246 292.966L48.6549 292.916L70.8488 365.113L48.9819 437.41L26.9515 437.46L4.92121 437.509L26.7881 365.213Z" fill="white" fill-opacity="0.06"/>
<path d="M106.978 365.031L84.7846 292.834L106.815 292.784L128.845 292.734L151.039 364.932L129.172 437.228L107.142 437.278L85.1116 437.328L106.978 365.031Z" fill="white" fill-opacity="0.06"/>
<path d="M187.169 364.85L164.975 292.653L187.006 292.603L209.036 292.553L231.23 364.75L209.363 437.047L187.333 437.097L165.302 437.147L187.169 364.85Z" fill="white" fill-opacity="0.06"/>
<path d="M267.359 364.668L245.166 292.471L267.196 292.421L289.226 292.372L311.42 364.569L289.553 436.865L267.523 436.915L245.493 436.965L267.359 364.668Z" fill="white" fill-opacity="0.06"/>
<path d="M347.55 364.487L325.356 292.29L347.386 292.24L369.417 292.19L391.61 364.387L369.744 436.684L347.713 436.734L325.683 436.784L347.55 364.487Z" fill="white" fill-opacity="0.06"/>
<path d="M427.74 364.305L405.546 292.108L427.577 292.059L449.607 292.009L471.801 364.206L449.934 436.502L427.904 436.552L405.873 436.602L427.74 364.305Z" fill="white" fill-opacity="0.06"/>
<path d="M507.931 364.124L485.737 291.927L507.767 291.877L529.797 291.827L551.991 364.024L530.124 436.321L508.094 436.371L486.064 436.421L507.931 364.124Z" fill="white" fill-opacity="0.06"/>
<path d="M588.121 363.942L565.927 291.745L587.958 291.696L609.988 291.646L632.182 363.843L610.315 436.14L588.285 436.189L566.254 436.239L588.121 363.942Z" fill="white" fill-opacity="0.06"/>
<path d="M66.1156 220.629L43.9218 148.432L65.9521 148.382L87.9825 148.332L110.176 220.529L88.3094 292.826L66.2791 292.876L44.2488 292.926L66.1156 220.629Z" fill="white" fill-opacity="0.06"/>
<path d="M146.306 220.448L124.112 148.251L146.143 148.201L168.173 148.151L190.367 220.348L168.5 292.645L146.47 292.695L124.439 292.744L146.306 220.448Z" fill="white" fill-opacity="0.06"/>
<path d="M226.497 220.266L204.303 148.069L226.333 148.019L248.364 147.97L270.557 220.167L248.69 292.463L226.66 292.513L204.63 292.563L226.497 220.266Z" fill="white" fill-opacity="0.06"/>
<path d="M306.687 220.085L284.493 147.888L306.524 147.838L328.554 147.788L350.748 219.985L328.881 292.282L306.851 292.332L284.82 292.382L306.687 220.085Z" fill="white" fill-opacity="0.06"/>
<path d="M386.877 219.903L364.684 147.706L386.714 147.656L408.744 147.607L430.938 219.804L409.071 292.1L387.041 292.15L365.011 292.2L386.877 219.903Z" fill="white" fill-opacity="0.06"/>
<path d="M467.068 219.722L444.874 147.525L466.904 147.475L488.935 147.425L511.129 219.622L489.262 291.919L467.231 291.969L445.201 292.019L467.068 219.722Z" fill="white" fill-opacity="0.06"/>
<path d="M547.258 219.54L525.064 147.343L547.095 147.294L569.125 147.244L591.319 219.441L569.452 291.738L547.422 291.787L525.391 291.837L547.258 219.54Z" fill="white" fill-opacity="0.06"/>
<path d="M627.449 219.359L605.255 147.162L627.285 147.112L649.316 147.062L671.509 219.259L649.643 291.556L627.612 291.606L605.582 291.656L627.449 219.359Z" fill="white" fill-opacity="0.06"/>
<path d="M25.2529 76.2271L3.05908 4.03003L25.0894 3.98018L47.1198 3.93033L69.3136 76.1274L47.4467 148.424L25.4164 148.474L3.38605 148.524L25.2529 76.2271Z" fill="white" fill-opacity="0.06"/>
<path d="M105.443 76.0456L83.2495 3.84851L105.28 3.79866L127.31 3.74881L149.504 75.9459L127.637 148.243L105.607 148.292L83.5764 148.342L105.443 76.0456Z" fill="white" fill-opacity="0.06"/>
<path d="M185.634 75.8642L163.44 3.66711L185.47 3.61726L207.501 3.56741L229.695 75.7645L207.828 148.061L185.797 148.111L163.767 148.161L185.634 75.8642Z" fill="white" fill-opacity="0.06"/>
<path d="M265.824 75.6827L243.63 3.48569L265.661 3.43584L287.691 3.38598L309.885 75.583L288.018 147.88L265.988 147.93L243.957 147.979L265.824 75.6827Z" fill="white" fill-opacity="0.06"/>
<path d="M346.015 75.5013L323.821 3.3042L345.851 3.25435L367.881 3.2045L390.075 75.4015L368.208 147.698L346.178 147.748L324.148 147.798L346.015 75.5013Z" fill="white" fill-opacity="0.06"/>
<path d="M426.205 75.3198L404.011 3.12271L426.042 3.07286L448.072 3.02301L470.266 75.2201L448.399 147.517L426.369 147.567L404.338 147.617L426.205 75.3198Z" fill="white" fill-opacity="0.06"/>
<path d="M506.396 75.1384L484.202 2.94131L506.232 2.89146L528.262 2.84161L550.456 75.0387L528.589 147.335L506.559 147.385L484.529 147.435L506.396 75.1384Z" fill="white" fill-opacity="0.06"/>
<path d="M586.586 74.9569L564.392 2.75986L586.423 2.71001L608.453 2.66015L630.647 74.8572L608.78 147.154L586.75 147.204L564.719 147.254L586.586 74.9569Z" fill="white" fill-opacity="0.06"/>
</g>
<defs>
<clipPath id="clip0_20_6830">
<rect x="2.17877" y="0.617554" width="670.096" height="433.418" rx="6.56964" transform="rotate(0.168167 2.17877 0.617554)" fill="white"/>
</clipPath>
</defs>
</svg>
