<svg width="1440" height="800" viewBox="0 0 1440 800" fill="none" xmlns="http://www.w3.org/2000/svg">
<g clip-path="url(#clip0_12_382)">
<rect width="1440" height="800" fill="white"/>
<g clip-path="url(#clip1_12_382)">
<path d="M-24.707 693C-24.6515 693.009 -24.596 693.026 -24.5406 693.027C-23.723 693.035 -22.9058 693.046 -22.0883 693.064C-20.9724 693.088 -19.8574 693.128 -18.7428 693.168C-17.714 693.205 -16.6857 693.265 -15.6586 693.339C-14.2214 693.442 -12.7855 693.555 -11.3518 693.705C-9.61935 693.885 -7.89886 694.125 -6.21165 694.567C-4.51121 695.012 -2.90977 695.671 -1.52339 696.782C-0.160477 697.874 0.776581 699.266 1.37952 700.894C1.84165 702.142 2.0853 703.435 2.19453 704.759C2.30505 706.097 2.36522 707.437 2.40874 708.779C2.45739 710.279 2.51286 711.778 2.47958 713.278C2.44886 714.676 2.38527 716.074 2.28372 717.47C2.21544 718.412 2.14077 719.353 2.05373 720.293C1.95857 721.318 1.83439 722.339 1.7307 723.363C1.59373 724.72 1.3919 726.068 1.16105 727.411C0.79493 729.541 0.335361 731.643 -0.474533 733.664C-1.64244 736.578 -3.73844 738.461 -6.66525 739.485C-8.13313 739.999 -9.64752 740.312 -11.1794 740.547C-12.5833 740.763 -13.997 740.888 -15.4145 740.982C-16.4139 741.047 -17.4128 741.106 -18.4134 741.151C-19.7908 741.212 -21.1683 741.252 -22.5465 741.285C-23.2788 741.302 -24.011 741.301 -24.7428 741.319C-26.0366 741.349 -27.3304 741.362 -28.6246 741.342C-30.0746 741.319 -31.5245 741.299 -32.9741 741.262C-34.0963 741.233 -35.2181 741.19 -36.3391 741.134C-37.4665 741.078 -38.5938 741.012 -39.7195 740.924C-41.9721 740.75 -44.2162 740.508 -46.4043 739.908C-47.8987 739.497 -49.3405 738.965 -50.6245 738.068C-52.3057 736.894 -53.3853 735.281 -54.1235 733.394C-54.7905 731.69 -55.1975 729.923 -55.5282 728.133C-55.78 726.772 -55.9857 725.403 -56.1534 724.029C-56.26 723.155 -56.3373 722.279 -56.426 721.403C-56.5084 720.591 -56.5929 719.779 -56.6671 718.966C-56.7205 718.38 -56.7636 717.792 -56.802 717.204C-56.9475 714.977 -57.0059 712.746 -56.9995 710.514C-56.9961 709.328 -57.0021 708.139 -56.9313 706.954C-56.8318 705.281 -56.7397 703.607 -56.2972 701.978C-55.8402 700.296 -55.084 698.777 -53.8581 697.518C-52.8447 696.477 -51.6298 695.741 -50.2887 695.2C-48.8029 694.601 -47.2488 694.269 -45.6751 694.015C-44.3501 693.802 -43.0145 693.67 -41.6785 693.553C-40.6177 693.461 -39.5561 693.38 -38.4918 693.322C-36.974 693.24 -35.4571 693.149 -33.9371 693.106C-32.6724 693.072 -31.408 693.028 -30.1428 693.027C-30.0515 693.027 -29.9576 693.042 -29.8702 692.999C-28.1492 693 -26.4279 693 -24.707 693ZM-27.2933 739.241C-27.2933 739.24 -27.2933 739.24 -27.2933 739.239C-26.1339 739.239 -24.9741 739.264 -23.816 739.233C-22.2393 739.191 -20.6613 739.168 -19.0863 739.076C-18.2214 739.025 -17.3548 739.001 -16.4911 738.935C-15.1397 738.831 -13.7883 738.722 -12.4459 738.523C-11.173 738.335 -9.90909 738.113 -8.68401 737.703C-6.34777 736.921 -4.6068 735.467 -3.56178 733.213C-3.00919 732.021 -2.61747 730.776 -2.31878 729.501C-1.7888 727.236 -1.49309 724.935 -1.24432 722.625C-1.08089 721.108 -0.945621 719.588 -0.834251 718.066C-0.747204 716.877 -0.681061 715.684 -0.663994 714.491C-0.640526 712.864 -0.631138 711.235 -0.68021 709.607C-0.725868 708.087 -0.793285 706.57 -0.950741 705.057C-1.07321 703.88 -1.28187 702.723 -1.69663 701.61C-2.3128 699.957 -3.33605 698.633 -4.84533 697.698C-6.26627 696.818 -7.83827 696.37 -9.46531 696.086C-11.2148 695.782 -12.9784 695.592 -14.7467 695.433C-16.1049 695.312 -17.4657 695.237 -18.8256 695.152C-19.7541 695.094 -20.6844 695.053 -21.6142 695.024C-22.8717 694.985 -24.1296 694.953 -25.3871 694.939C-26.1975 694.929 -27.0078 694.933 -27.8185 694.954C-29.1546 694.987 -30.4919 694.968 -31.8279 695.015C-32.517 695.039 -33.2066 695.042 -33.8957 695.066C-34.5418 695.087 -35.1878 695.115 -35.833 695.154C-36.8959 695.217 -37.9589 695.286 -39.021 695.363C-39.7075 695.412 -40.3937 695.471 -41.0786 695.544C-42.0736 695.649 -43.0674 695.764 -44.057 695.912C-45.3435 696.105 -46.6202 696.333 -47.8543 696.764C-50.6782 697.751 -52.4743 699.672 -53.2027 702.585C-53.5786 704.089 -53.6925 705.624 -53.7907 707.162C-53.8564 708.19 -53.9046 709.22 -53.9157 710.25C-53.9362 712.148 -53.9404 714.045 -53.8521 715.943C-53.7984 717.099 -53.7211 718.253 -53.6324 719.408C-53.5376 720.639 -53.425 721.868 -53.2914 723.097C-53.1169 724.699 -52.904 726.296 -52.6001 727.879C-52.2643 729.626 -51.8359 731.347 -51.1067 732.98C-50.3578 734.658 -49.2564 736.022 -47.6337 736.929C-46.4798 737.574 -45.2343 737.958 -43.946 738.217C-41.9934 738.61 -40.0143 738.793 -38.0318 738.939C-37.0261 739.012 -36.0191 739.069 -35.0116 739.108C-33.5557 739.164 -32.0993 739.21 -30.6429 739.236C-29.5267 739.257 -28.4095 739.241 -27.2933 739.241Z" fill="#5F5F5F"/>
<path d="M17.3664 706.516C17.5332 706.508 17.7001 706.493 17.8669 706.493C23.5306 706.492 29.1939 706.492 34.8577 706.492C35.4572 706.492 35.458 706.493 35.4585 707.082C35.4593 707.79 35.4504 708.498 35.4623 709.206C35.467 709.49 35.3765 709.616 35.0736 709.645C34.2428 709.724 33.4175 709.858 32.5863 709.934C31.5076 710.032 30.958 710.568 30.9196 711.719C30.882 712.838 30.9144 713.959 30.9059 715.078C30.9038 715.355 31.0557 715.391 31.2754 715.39C31.9833 715.386 32.6913 715.389 33.3992 715.389C36.9904 715.389 40.5815 715.389 44.1727 715.388C44.6869 715.388 44.6886 715.386 44.6891 714.878C44.6895 713.835 44.6959 712.792 44.6852 711.75C44.6737 710.601 44.1284 710.043 42.9784 709.931C42.1092 709.847 41.2438 709.723 40.3754 709.627C40.16 709.603 40.084 709.486 40.0836 709.296C40.081 708.46 40.0823 707.623 40.0831 706.787C40.0836 706.58 40.1864 706.48 40.3964 706.492C40.486 706.497 40.5764 706.491 40.6665 706.491C46.3042 706.491 51.9423 706.491 57.58 706.491C58.1697 706.491 58.1701 706.492 58.1705 707.088C58.171 707.783 58.1624 708.478 58.1744 709.173C58.1791 709.461 58.1163 709.612 57.7814 709.646C56.8234 709.742 55.8667 709.86 54.9156 710.008C54.2273 710.116 53.8224 710.548 53.7063 711.237C53.653 711.553 53.6141 711.871 53.6146 712.196C53.6197 715.903 53.6197 719.61 53.6146 723.317C53.6141 723.642 53.6521 723.961 53.708 724.276C53.8492 725.073 54.3933 725.487 55.3018 725.573C56.1582 725.655 57.0103 725.781 57.8654 725.874C58.098 725.899 58.1722 726.011 58.171 726.226C58.1667 727.05 58.1663 727.873 58.1705 728.697C58.1718 728.928 58.0681 729.027 57.8428 729.016C57.7528 729.012 57.6628 729.017 57.5727 729.017C51.935 729.017 46.2969 729.017 40.6592 729.017C40.0802 729.017 40.0789 729.016 40.0776 728.444C40.0763 727.749 40.0827 727.054 40.0755 726.359C40.0721 726.062 40.1382 725.895 40.4936 725.862C41.4136 725.776 42.3332 725.665 43.2455 725.517C44.0989 725.379 44.5751 724.845 44.5977 723.989C44.6293 722.806 44.6067 721.621 44.614 720.437C44.6152 720.202 44.5133 720.113 44.2879 720.119C44.0306 720.126 43.7733 720.12 43.5156 720.12C39.4994 720.12 35.4836 720.12 31.4675 720.12C30.9076 720.12 30.9072 720.12 30.9068 720.661C30.9063 721.626 30.9106 722.592 30.9042 723.557C30.9025 723.843 30.9464 724.123 31.0117 724.397C31.1824 725.111 31.6992 725.484 32.5466 725.571C33.4026 725.658 34.2543 725.782 35.1103 725.869C35.3787 725.897 35.4606 726.016 35.4585 726.265C35.4516 727.05 35.4474 727.835 35.4602 728.62C35.4653 728.924 35.3445 729.025 35.0484 729.021C34.2376 729.008 33.4265 729.017 32.6157 729.017C27.7243 729.017 22.833 729.017 17.942 729.016C17.7496 729.016 17.5567 729.001 17.3643 728.993C17.3643 727.963 17.3643 726.933 17.3643 725.903C18.434 725.773 19.5051 725.654 20.5727 725.51C21.3007 725.411 21.6971 724.957 21.8362 724.246C21.8861 723.991 21.8993 723.738 21.8993 723.48C21.8993 720.716 21.8998 717.953 21.8993 715.189C21.8993 714.032 21.9109 712.875 21.8929 711.719C21.8763 710.644 21.3668 710.072 20.347 709.948C19.3536 709.827 18.3585 709.719 17.3643 709.605C17.3664 708.576 17.3664 707.546 17.3664 706.516Z" fill="#5F5F5F"/>
<path d="M74.7566 729.688C74.0679 729.619 73.3779 729.56 72.6905 729.477C69.7048 729.117 66.8113 728.442 64.2088 726.854C61.2615 725.055 59.4621 722.467 59.0853 719.008C58.7123 715.586 59.6208 712.553 62.1482 710.116C63.6882 708.631 65.5538 707.687 67.5717 707.033C69.5491 706.391 71.5832 706.053 73.6519 705.859C75.4897 705.688 77.3293 705.673 79.1654 705.737C82.4972 705.854 85.7768 706.306 88.8637 707.666C91.3586 708.765 93.4201 710.373 94.6631 712.866C95.5673 714.68 95.8971 716.608 95.7307 718.631C95.3544 723.202 92.7493 726.072 88.713 727.836C86.5748 728.771 84.3124 729.243 81.9988 729.485C81.3356 729.555 80.6721 729.621 80.009 729.688C78.2582 729.688 76.5074 729.688 74.7566 729.688ZM85.3156 717.698C85.3442 717.022 85.272 716.281 85.1577 715.543C84.7557 712.944 83.3954 711.154 80.7784 710.498C78.6004 709.952 76.3999 709.951 74.2109 710.455C71.7052 711.032 70.2117 712.618 69.7052 715.123C69.3421 716.92 69.3511 718.724 69.733 720.52C70.2395 722.9 71.6591 724.432 74.0291 725.014C76.2881 725.569 78.5667 725.571 80.8215 724.997C83.0852 724.421 84.4814 722.958 85.0122 720.676C85.2349 719.719 85.3331 718.751 85.3156 717.698Z" fill="#5F5F5F"/>
<path d="M215.104 728.916C214.95 728.924 214.796 728.94 214.642 728.94C208.554 728.941 202.466 728.941 196.377 728.94C195.771 728.94 195.77 728.94 195.77 728.323C195.77 727.615 195.778 726.907 195.767 726.199C195.763 725.924 195.864 725.821 196.143 725.793C196.974 725.711 197.802 725.598 198.63 725.497C198.85 725.47 199.059 725.407 199.255 725.309C199.818 725.026 199.994 724.569 199.725 723.997C199.434 723.377 198.998 722.845 198.626 722.274C198.496 722.074 198.281 722.134 198.095 722.134C194.955 722.131 191.813 722.131 188.673 722.131C187.502 722.131 186.33 722.138 185.159 722.127C184.885 722.124 184.703 722.203 184.562 722.448C184.26 722.972 183.926 723.477 183.618 723.997C183.252 724.616 183.429 725.145 184.087 725.45C184.631 725.7 185.226 725.619 185.793 725.718C186.058 725.764 186.329 725.77 186.598 725.796C187.165 725.85 187.165 725.851 187.166 726.433C187.166 727.089 187.167 727.746 187.165 728.402C187.164 728.938 187.163 728.94 186.634 728.94C183.185 728.941 179.735 728.94 176.285 728.94C175.255 728.94 174.225 728.93 173.196 728.946C172.86 728.952 172.74 728.842 172.749 728.503C172.768 727.744 172.763 726.984 172.751 726.225C172.746 725.938 172.84 725.82 173.142 725.791C173.999 725.71 174.852 725.594 175.706 725.488C176.443 725.397 176.942 724.969 177.319 724.357C178.656 722.188 179.998 720.022 181.338 717.855C182.536 715.918 183.736 713.981 184.932 712.043C185.094 711.782 185.265 711.525 185.275 711.196C185.296 710.563 184.884 710.084 184.252 710.018C183.038 709.891 181.825 709.751 180.611 709.638C180.325 709.611 180.237 709.499 180.241 709.229C180.251 708.47 180.259 707.71 180.238 706.95C180.228 706.598 180.346 706.483 180.701 706.485C183.121 706.497 185.54 706.491 187.96 706.491C190.998 706.491 194.036 706.513 197.074 706.479C198.166 706.467 198.938 706.896 199.522 707.791C202.102 711.747 204.694 715.696 207.281 719.647C208.296 721.198 209.314 722.746 210.322 724.302C210.854 725.124 211.604 725.517 212.574 725.578C213.419 725.63 214.261 725.741 215.105 725.826C215.104 726.856 215.104 727.886 215.104 728.916ZM191.517 718.076C192.816 718.076 194.115 718.077 195.415 718.074C195.511 718.074 195.642 718.124 195.697 718.015C195.751 717.911 195.643 717.828 195.589 717.746C194.249 715.702 192.905 713.662 191.568 711.616C191.414 711.379 191.335 711.329 191.164 711.611C189.92 713.655 188.662 715.69 187.411 717.729C187.214 718.05 187.228 718.075 187.619 718.076C188.918 718.078 190.217 718.076 191.517 718.076Z" fill="#5F5F5F"/>
<path d="M126.251 722.993C126.251 719.949 126.258 717.014 126.247 714.08C126.243 713.194 126.324 712.304 126.19 711.421C126.043 710.451 125.582 710.036 124.613 709.937C123.757 709.85 122.905 709.725 122.048 709.639C121.78 709.611 121.69 709.499 121.705 709.246C121.758 708.399 121.806 707.552 121.85 706.705C121.859 706.517 121.935 706.416 122.129 706.419C122.232 706.42 122.336 706.416 122.438 706.416C126.854 706.416 131.269 706.416 135.684 706.416C136.26 706.416 136.261 706.417 136.262 706.989C136.263 707.71 136.254 708.431 136.265 709.151C136.269 709.419 136.183 709.538 135.898 709.567C135.119 709.646 134.345 709.777 133.565 709.852C132.238 709.98 131.747 710.489 131.711 711.827C131.707 711.969 131.71 712.111 131.71 712.252C131.71 717.619 131.71 722.987 131.71 728.355C131.71 728.939 131.709 728.94 131.113 728.94C127.612 728.94 124.111 728.928 120.61 728.947C119.586 728.953 118.836 728.578 118.211 727.75C114.468 722.787 110.696 717.847 106.933 712.899C106.85 712.79 106.76 712.687 106.664 712.57C106.574 712.712 106.613 712.843 106.613 712.966C106.61 716.338 106.609 719.711 106.614 723.083C106.615 723.455 106.642 723.829 106.688 724.199C106.791 725.014 107.347 725.478 108.256 725.571C109.112 725.658 109.964 725.783 110.82 725.869C111.092 725.897 111.165 726.019 111.163 726.266C111.155 727.039 111.146 727.811 111.166 728.583C111.175 728.927 111.047 729.024 110.716 729.022C108.515 729.011 106.314 729.016 104.113 729.016C101.796 729.016 99.4789 729.01 97.1623 729.023C96.8017 729.025 96.6553 728.926 96.6677 728.545C96.6916 727.799 96.6822 727.052 96.6711 726.306C96.6669 726.025 96.7488 725.894 97.056 725.865C97.8868 725.786 98.7129 725.656 99.5433 725.574C100.682 725.462 101.214 724.876 101.222 723.636C101.233 721.912 101.225 720.187 101.225 718.462C101.225 716.351 101.225 714.24 101.225 712.129C101.225 712 101.229 711.871 101.222 711.742C101.152 710.545 100.637 710.035 99.4546 709.928C98.6233 709.853 97.7972 709.725 96.9673 709.631C96.7569 709.607 96.6754 709.505 96.6758 709.305C96.678 708.468 96.678 707.632 96.6767 706.795C96.6762 706.587 96.7714 706.486 96.9818 706.493C97.0846 706.496 97.1879 706.491 97.2907 706.491C102.182 706.491 107.073 706.491 111.965 706.491C112.171 706.491 112.377 706.489 112.583 706.496C113.371 706.525 113.998 706.814 114.494 707.473C118.295 712.521 122.116 717.554 125.931 722.592C126.014 722.703 126.103 722.809 126.251 722.993Z" fill="#5F5F5F"/>
<path d="M150.41 728.94C145.732 728.94 141.871 728.941 138.008 728.94C137.456 728.94 137.455 728.938 137.454 728.386C137.453 727.665 137.463 726.944 137.45 726.223C137.445 725.935 137.541 725.822 137.842 725.79C138.8 725.69 139.758 725.576 140.708 725.424C141.404 725.313 141.808 724.88 141.918 724.195C141.973 723.854 142.003 723.505 142.004 723.159C142.01 719.451 142.006 715.744 142.011 712.036C142.011 711.712 141.977 711.392 141.922 711.077C141.827 710.533 141.501 710.179 140.97 710.019C140.262 709.806 139.523 709.812 138.799 709.711C137.523 709.534 137.791 709.799 137.763 708.596C137.749 708.017 137.768 707.438 137.758 706.858C137.753 706.599 137.842 706.467 138.113 706.492C138.177 706.498 138.242 706.492 138.306 706.492C145.721 706.492 153.137 706.477 160.552 706.502C163.207 706.512 165.807 706.919 168.269 707.975C170.853 709.083 172.862 710.804 173.908 713.487C174.583 715.22 174.761 717.02 174.593 718.869C174.446 720.485 174.012 722.001 173.161 723.387C172.112 725.096 170.619 726.311 168.835 727.177C166.675 728.225 164.371 728.736 161.987 728.857C157.858 729.065 153.725 728.872 150.41 728.94ZM150.784 717.753C150.784 719.85 150.784 721.947 150.784 724.045C150.784 724.588 150.785 724.59 151.307 724.59C153.598 724.591 155.888 724.594 158.179 724.587C158.718 724.585 159.256 724.578 159.795 724.504C162.042 724.198 163.364 723.053 163.879 720.845C164.328 718.917 164.298 716.967 163.971 715.024C163.788 713.937 163.387 712.943 162.556 712.173C161.617 711.302 160.451 710.976 159.224 710.952C156.574 710.903 153.923 710.932 151.272 710.91C150.873 710.906 150.773 711.04 150.776 711.421C150.793 713.532 150.784 715.642 150.784 717.753Z" fill="#5F5F5F"/>
</g>
<rect width="224.133" height="66.5394" transform="translate(311.104 684.001)" fill="white"/>
<path d="M524.885 719.759L526.192 719.653C526.728 719.611 527.264 719.548 527.757 719.484C529.043 719.295 530.136 718.957 531.036 718.493C531.379 718.324 531.551 718.198 531.936 717.923C533.072 717.122 533.651 716.046 533.737 714.569C533.758 714.274 533.737 714.042 533.715 713.789C533.651 712.861 533.437 712.08 533.051 711.468C532.601 710.73 531.958 710.161 531.101 709.739C530.243 709.317 529.15 709 527.885 708.81C527.885 708.81 526.021 708.515 523.256 708.515H502.122V726.045H508.767V719.885H517.79L527.95 726.066H535.237L524.885 719.759ZM521.863 710.561C521.905 710.561 521.927 710.561 521.97 710.561C522.72 710.582 523.363 710.604 523.92 710.667C524.628 710.751 525.228 710.899 525.699 711.152C526.192 711.405 526.578 711.785 526.771 712.249C526.964 712.65 527.05 713.156 527.071 713.768C527.071 713.81 527.092 714.654 527.05 715.076C527.028 715.498 526.921 715.962 526.771 716.278C526.621 716.616 526.407 716.89 526.106 717.122C526.021 717.185 525.935 717.248 525.849 717.291C525.421 717.523 524.885 717.67 524.199 717.755C523.577 717.818 522.784 717.86 521.841 717.86H508.724V710.561H521.863Z" fill="#5F5F5F"/>
<path d="M332.924 708.536V716.784C332.924 719.252 332.002 721.088 330.18 722.227C328.615 723.218 326.343 723.724 323.45 723.724H311.104V726.066H321.349C324.2 726.066 326.815 725.961 329.108 725.75C331.359 725.539 333.267 725.117 334.81 724.484C336.31 723.872 337.489 722.986 338.303 721.847C339.032 720.813 339.439 719.463 339.525 717.797C339.525 717.649 339.547 717.459 339.547 717.248V708.536H332.924Z" fill="#5F5F5F"/>
<path d="M408.993 718.029V723.725H398.855C393.539 723.725 390.453 722.037 389.617 718.746C389.274 717.375 389.488 716.067 389.617 715.582C390.431 712.249 393.475 710.625 398.855 710.625H414.716V708.536H400.934C398.04 708.536 395.425 708.642 393.132 708.832C390.903 709.021 388.974 709.443 387.43 710.055C385.909 710.667 384.751 711.532 383.958 712.671C383.186 713.747 382.801 715.202 382.758 716.995C382.758 717.038 382.758 717.08 382.758 717.143C382.758 717.227 382.758 717.312 382.758 717.417C382.779 719.274 383.186 720.771 383.98 721.868C384.794 723.007 385.973 723.893 387.473 724.505C389.016 725.138 390.946 725.56 393.175 725.771C395.468 725.982 398.062 726.087 400.934 726.087H415.616V718.029H408.993Z" fill="#5F5F5F"/>
<path d="M364.709 708.536H357.872L342.547 726.066H346.512L349.963 722.121H369.232L372.683 726.066H380.056L364.709 708.536ZM359.587 711.11L367.582 720.244H351.613L359.587 711.11Z" fill="#5F5F5F"/>
<path d="M474.021 708.536L458.696 726.066H462.662L466.112 722.1H485.36L488.811 726.066H496.205L480.88 708.536H474.021ZM483.752 720.244H467.763L475.758 711.11L483.752 720.244Z" fill="#5F5F5F"/>
<path d="M449.073 708.536V717.417C449.073 718.177 448.966 718.873 448.816 719.506C447.958 722.733 444.893 724.379 439.621 724.4H438.956C433.662 724.4 430.576 722.712 429.74 719.442C429.59 718.831 429.504 718.156 429.504 717.438V708.536H422.859V717.691C422.859 719.59 423.267 721.151 424.081 722.29C424.595 722.986 425.239 723.619 426.01 724.125C426.482 724.421 426.996 724.695 427.575 724.927C428.154 725.159 428.775 725.37 429.461 725.539C430.597 725.834 431.883 726.045 433.298 726.193C435.077 726.361 437.091 726.467 439.278 726.467C441.485 726.467 443.479 726.361 445.258 726.193C446.651 726.066 447.937 725.855 449.073 725.56C449.759 725.391 450.38 725.18 450.959 724.948C451.538 724.716 452.052 724.463 452.524 724.147C453.317 723.64 453.96 723.028 454.453 722.311C455.267 721.172 455.674 719.611 455.674 717.713V708.536H449.073Z" fill="#5F5F5F"/>
<rect width="78.7967" height="66.5394" transform="translate(631.237 684.001)" fill="white"/>
<path d="M642.421 707.048C646.521 695.163 657.855 687.133 670.635 687.133C683.416 687.133 694.749 695.163 698.849 707.048V707.129H707.852V706.085L704.154 705.683C701.823 705.442 701.341 704.398 700.698 703.113L700.537 702.792C695.151 691.389 683.416 684.001 670.635 684.001C657.855 684.001 646.119 691.389 640.653 702.792L640.492 703.113C639.93 704.398 639.367 705.442 637.116 705.683L633.338 706.085V707.129H642.341L642.421 707.048Z" fill="#5F5F5F"/>
<path d="M698.929 726.884V726.964C694.749 738.849 683.416 746.88 670.635 746.88C657.855 746.88 646.521 738.849 642.421 726.964V726.884H633.338V727.928L637.116 728.329C639.447 728.57 639.93 729.614 640.573 730.899L640.733 731.22C646.039 742.624 657.855 750.012 670.635 750.012C683.416 750.012 695.151 742.624 700.617 731.22L700.778 730.899C701.421 729.614 701.903 728.651 704.234 728.329L708.012 727.928V726.884H698.929Z" fill="#5F5F5F"/>
<path d="M649.495 712.83H647.405V721.985H649.495V712.83Z" fill="#5F5F5F"/>
<path d="M642.502 721.905V712.83H640.492V719.656L633.821 712.83H631.249V721.905H633.258V715.079L640.01 721.905H642.502Z" fill="#5F5F5F"/>
<path d="M688.238 712.83L682.612 721.985H685.023L685.988 720.379H692.499L693.463 721.985H695.875L690.248 712.83H688.238ZM691.534 718.612H687.033L689.283 714.918L691.534 718.612Z" fill="#5F5F5F"/>
<path d="M676.905 720.058C676.824 720.058 676.583 720.058 676.503 720.058H668.063V721.905H676.583C676.664 721.905 677.146 721.905 677.226 721.905C678.995 721.744 679.718 720.379 679.718 719.094C679.718 717.809 678.914 716.524 677.307 716.364C677.066 716.364 676.824 716.364 676.664 716.364H671.117C670.876 716.364 670.715 716.364 670.474 716.284C670.072 716.203 669.831 715.882 669.912 715.48C669.912 715.079 670.153 714.758 670.555 714.677C670.715 714.597 670.957 714.597 671.117 714.597H679.155V712.75H671.037C670.796 712.75 670.474 712.75 670.233 712.83C668.867 712.991 667.822 714.115 667.822 715.48C667.822 716.605 668.545 717.97 670.153 718.131C670.474 718.131 670.715 718.211 671.037 718.131H676.423C676.503 718.131 676.744 718.131 676.824 718.131C677.307 718.211 677.628 718.612 677.628 719.014C677.628 719.576 677.307 719.978 676.905 720.058Z" fill="#5F5F5F"/>
<path d="M662.115 720.058C662.034 720.058 661.793 720.058 661.713 720.058H653.353V721.905H661.793C661.874 721.905 662.356 721.905 662.436 721.905C664.205 721.744 665.009 720.379 665.009 719.174C665.009 717.97 664.205 716.605 662.597 716.444C662.356 716.444 662.115 716.444 661.954 716.444H656.408C656.167 716.444 656.006 716.444 655.765 716.364C655.363 716.283 655.122 715.962 655.202 715.561C655.202 715.159 655.443 714.838 655.845 714.758C656.006 714.677 656.247 714.677 656.408 714.677H664.446V712.83H656.247C656.006 712.83 655.684 712.83 655.443 712.911C654.077 713.071 653.032 714.195 653.032 715.561C653.032 716.685 653.755 718.05 655.363 718.211C655.684 718.211 655.925 718.291 656.247 718.211H661.632C661.713 718.211 661.954 718.211 662.034 718.211C662.517 718.291 662.838 718.693 662.838 719.094C662.919 719.576 662.517 719.977 662.115 720.058Z" fill="#5F5F5F"/>
<path d="M710.022 721.905V712.83H708.012V719.656L701.341 712.83H698.769V721.905H700.778V715.079L707.53 721.905H710.022Z" fill="#5F5F5F"/>
<path d="M704.797 744.471C705.762 744.471 706.566 745.274 706.566 746.237C706.566 747.201 705.762 748.004 704.797 748.004C703.833 748.004 703.029 747.201 703.029 746.237C703.029 745.756 703.19 745.354 703.591 744.953C703.833 744.631 704.315 744.39 704.797 744.471ZM704.797 747.603C705.199 747.603 705.521 747.442 705.762 747.201C706.003 746.96 706.164 746.559 706.164 746.237C706.164 745.515 705.521 744.872 704.797 744.953C704.074 744.953 703.431 745.595 703.431 746.318C703.431 746.96 703.993 747.603 704.797 747.603ZM704.074 747.121V745.354C704.315 745.354 704.476 745.274 704.717 745.274C705.038 745.274 705.521 745.354 705.521 745.756C705.521 745.997 705.36 746.157 705.119 746.157C705.279 746.237 705.36 746.398 705.44 746.559C705.44 746.719 705.521 746.88 705.601 746.96H705.199C705.119 746.8 705.119 746.639 705.038 746.559C704.958 746.318 704.797 746.318 704.476 746.318V747.041L704.074 747.121ZM704.476 746.077C704.797 746.077 705.119 746.077 705.119 745.836C705.119 745.675 705.038 745.595 704.717 745.595C704.636 745.595 704.556 745.595 704.476 745.595V746.077Z" fill="#5F5F5F"/>
<rect width="224.133" height="66.5394" transform="translate(806.034 684.001)" fill="white"/>
<g clip-path="url(#clip2_12_382)">
<path d="M809.834 711.128L817.553 724.935L826.476 724.959L834.053 711.128H837.854V708.613H826.429V711.128H829.733L824.21 721.187L818.615 711.128H822.628V708.613H806.034V711.128H809.834Z" fill="#5F5F5F"/>
<path d="M908.103 711.128V708.637H923.399V711.128H919.599V722.421H923.14C926.421 722.421 928.569 720.279 928.569 717.391H931.095V724.959H908.127V722.397H911.974V711.105H908.103V711.128Z" fill="#5F5F5F"/>
<path d="M871.019 708.264C863.347 708.264 859.264 712.036 859.264 716.786C859.264 721.582 863.182 725.424 871.066 725.424C878.951 725.424 882.822 721.582 882.822 716.786C882.822 712.059 878.714 708.264 871.019 708.264ZM870.948 722.84C868.139 722.793 866.912 719.743 866.959 716.693C867.006 713.55 868.541 710.802 871.161 710.849C873.781 710.895 875.174 713.689 875.126 716.833C875.079 719.79 873.828 722.886 870.948 722.84Z" fill="#5F5F5F"/>
<path d="M957.155 711.128L964.874 724.935L973.797 724.959L981.374 711.128H985.175V708.613H973.75V711.128H977.054L971.531 721.187L965.936 711.128H969.949V708.613H953.354V711.128H957.155Z" fill="#5F5F5F"/>
<path d="M1018.34 708.264C1010.67 708.264 1006.58 712.036 1006.58 716.786C1006.58 721.582 1010.5 725.424 1018.39 725.424C1026.27 725.424 1030.14 721.582 1030.14 716.786C1030.14 712.059 1026.04 708.264 1018.34 708.264ZM1018.27 722.84C1015.46 722.793 1014.23 719.743 1014.28 716.693C1014.33 713.55 1015.86 710.802 1018.48 710.849C1021.1 710.895 1022.49 713.689 1022.45 716.833C1022.4 719.79 1021.15 722.886 1018.27 722.84Z" fill="#5F5F5F"/>
</g>
<rect width="143.585" height="66.5394" transform="translate(1126.17 684.001)" fill="white"/>
<path d="M1244.63 742.122C1238.94 742.122 1233.5 740.252 1229.1 736.763C1224.71 740.216 1219.27 742.122 1213.57 742.122C1207.88 742.122 1202.44 740.252 1198.04 736.763C1193.65 740.216 1188.21 742.122 1182.51 742.122C1176.82 742.122 1171.38 740.252 1166.98 736.763C1162.59 740.216 1157.15 742.122 1151.45 742.122C1144.82 742.122 1138.59 739.604 1133.87 735.001C1129.08 730.397 1126.41 724.247 1126.3 717.702C1126.19 711.12 1128.64 704.898 1133.22 700.115C1137.76 695.368 1143.92 692.634 1150.55 692.419H1150.66H1152.24C1157.65 692.599 1162.77 694.469 1166.95 697.741C1171.09 694.469 1176.21 692.599 1181.61 692.419L1181.72 695.224V692.419H1183.31C1188.71 692.599 1193.83 694.469 1198.01 697.741C1202.19 694.469 1207.27 692.599 1212.71 692.419H1212.82H1214.4C1219.81 692.599 1224.92 694.469 1229.1 697.741C1233.25 694.469 1238.36 692.599 1243.8 692.419L1243.91 695.224V692.419H1245.5C1252.09 692.634 1258.25 695.368 1262.83 700.115C1267.41 704.862 1269.86 711.12 1269.75 717.666C1269.64 724.247 1266.97 730.397 1262.25 735.001C1257.46 739.604 1251.23 742.122 1244.63 742.122ZM1233.21 732.699C1236.42 735.037 1240.38 736.439 1244.63 736.439C1255.12 736.439 1263.8 727.988 1263.95 717.63C1264.13 707.272 1255.77 698.569 1245.32 698.173H1243.95C1239.95 698.317 1236.27 699.684 1233.25 701.877C1236.85 706.373 1238.72 711.912 1238.65 717.702C1238.51 723.204 1236.63 728.419 1233.21 732.699ZM1202.15 732.699C1205.36 735.037 1209.32 736.439 1213.57 736.439C1217.82 736.439 1221.75 735.037 1224.96 732.699C1221.57 728.455 1219.66 723.204 1219.55 717.702C1219.45 711.912 1221.36 706.373 1224.96 701.877C1221.93 699.684 1218.26 698.317 1214.26 698.173H1212.89C1208.89 698.317 1205.21 699.684 1202.19 701.877C1205.79 706.373 1207.66 711.912 1207.59 717.702C1207.45 723.204 1205.54 728.419 1202.15 732.699ZM1171.05 732.699C1174.26 735.037 1178.22 736.439 1182.48 736.439C1186.73 736.439 1190.66 735.037 1193.86 732.699C1190.48 728.455 1188.57 723.204 1188.46 717.702C1188.35 711.912 1190.26 706.373 1193.86 701.877C1190.84 699.684 1187.16 698.317 1183.16 698.173H1181.79C1177.79 698.317 1174.12 699.684 1171.09 701.877C1174.69 706.373 1176.57 711.912 1176.49 717.702C1176.35 723.204 1174.44 728.419 1171.05 732.699ZM1150.7 698.137C1140.25 698.497 1131.89 707.236 1132.07 717.594C1132.25 727.952 1140.89 736.404 1151.38 736.404C1155.63 736.404 1159.56 735.001 1162.77 732.663C1159.38 728.419 1157.47 723.168 1157.36 717.666C1157.25 711.876 1159.16 706.337 1162.77 701.841C1159.74 699.648 1156.06 698.281 1152.06 698.137H1150.7ZM1198.01 705.941C1195.56 709.214 1194.15 713.242 1194.22 717.594C1194.3 721.694 1195.7 725.506 1198.01 728.599C1200.31 725.506 1201.72 721.694 1201.79 717.594C1201.86 713.242 1200.42 709.214 1198.01 705.941ZM1166.91 705.941C1164.46 709.214 1163.05 713.242 1163.13 717.594C1163.2 721.694 1164.6 725.506 1166.91 728.599C1169.22 725.506 1170.62 721.694 1170.69 717.594C1170.77 713.242 1169.36 709.214 1166.91 705.941ZM1229.07 705.941C1226.62 709.214 1225.21 713.242 1225.28 717.594C1225.36 721.694 1226.76 725.506 1229.07 728.599C1231.37 725.506 1232.78 721.694 1232.85 717.594C1232.96 713.242 1231.52 709.214 1229.07 705.941Z" fill="#5F5F5F"/>
<rect width="217.129" height="66.5394" transform="translate(1365.75 684.001)" fill="white"/>
<path d="M1444.41 705.175H1450.33L1463.59 727.06H1457.31L1447.41 710.363L1442.14 719.198H1450.66L1453.21 723.332H1439.87L1437.48 727.02H1431.19L1444.41 705.175ZM1548.72 727.101H1555.01L1557.4 723.413H1570.75L1568.19 719.279H1559.67L1564.95 710.444L1574.84 727.142H1581.13L1567.87 705.256H1561.95L1548.72 727.101ZM1463.23 716.158V719.076C1463.35 724.831 1466.6 727.263 1471.62 727.142H1488.17V722.643H1471.66C1468.91 722.724 1468.7 720.819 1468.62 718.914V716.158V713.281C1468.7 711.579 1468.91 709.633 1471.66 709.674H1488.17V705.175H1471.62C1466.6 705.054 1463.39 707.526 1463.23 713.24V716.158ZM1526.05 709.877H1539.36C1541.22 709.877 1542.15 710.687 1542.15 712.268C1542.15 713.889 1541.22 714.659 1539.36 714.659H1527.43L1528.49 719.36H1538.67C1540.65 719.32 1541.79 720.698 1541.95 722.602L1542.11 727.101H1547.39C1547.39 727.101 1547.35 722.886 1547.22 722.035C1547.1 721.184 1546.74 718.833 1544.67 717.699C1549.54 714.497 1547.75 705.216 1540.77 705.216H1520.7V727.101H1526.05L1526.05 709.877ZM1504.27 727.101H1508.94C1514.7 726.979 1517.13 723.737 1517.01 718.712V705.175H1511.74V719.806C1511.82 722.562 1509.87 722.764 1508 722.846H1504.27H1500.34C1498.64 722.765 1496.69 722.562 1496.73 719.806V705.175H1491.34V718.752C1491.21 723.778 1493.69 726.979 1499.41 727.101H1504.27ZM1416.85 714.924C1416.4 706.737 1413.6 700.739 1409.79 697.456C1405.65 693.93 1397.95 692.552 1391.98 692.593C1386.02 692.552 1378.32 693.93 1374.18 697.456C1370.37 700.739 1367.57 706.737 1367.12 714.924C1366.72 722.624 1368.38 731.014 1372.76 735.756C1376.98 740.416 1385.41 741.875 1391.94 741.875C1398.47 741.916 1406.91 740.416 1411.13 735.756C1415.51 730.973 1417.21 722.584 1416.85 714.924ZM1390.56 694.66C1391.37 694.619 1391.58 694.619 1391.94 694.619C1392.31 694.619 1392.47 694.619 1393.32 694.66L1393.36 712.573C1393.12 712.573 1390.77 712.573 1390.52 712.573C1390.52 712.573 1390.52 694.66 1390.56 694.66ZM1370.41 722.462C1370.16 719.382 1369.23 708.156 1373.69 701.752C1375.6 698.956 1378.4 697.091 1381.24 696.119C1385.17 694.741 1389.87 694.66 1389.87 694.66C1388.05 699.159 1384.28 708.804 1383.55 710.952C1382.66 713.586 1381.88 715.086 1381.11 719.828C1380.63 723.719 1379.78 733.405 1379.53 737.62C1374.26 735.107 1371.1 730.325 1370.41 722.462ZM1391.9 739.808C1388.21 739.768 1383.67 739.403 1380.06 737.863C1381.28 734.621 1387.08 720.679 1390.28 715.248C1390.52 715.248 1393.32 715.248 1393.57 715.248C1396.73 720.679 1402.57 734.621 1403.79 737.863C1400.14 739.444 1395.63 739.768 1391.9 739.808ZM1413.44 722.422C1412.75 730.325 1409.59 735.067 1404.31 737.62C1404.07 733.405 1403.22 723.719 1402.73 719.828C1401.96 715.046 1401.19 713.587 1400.3 710.952C1399.57 708.804 1395.8 699.159 1393.97 694.66C1393.97 694.66 1398.68 694.741 1402.61 696.119C1405.45 697.092 1408.25 698.996 1410.15 701.752C1414.61 708.156 1413.68 719.382 1413.44 722.422Z" fill="#5F5F5F"/>
<path opacity="0.08" fill-rule="evenodd" clip-rule="evenodd" d="M-173 684L273.544 508.159L720 684L538.71 406.352L273.544 2.06358e-05L8.2903 406.352L-173 684Z" fill="#1572D3"/>
</g>
<defs>
<clipPath id="clip0_12_382">
<rect width="1440" height="800" fill="white"/>
</clipPath>
<clipPath id="clip1_12_382">
<rect width="272.104" height="66.54" fill="white" transform="translate(-57 684)"/>
</clipPath>
<clipPath id="clip2_12_382">
<rect width="224.133" height="17.1835" fill="white" transform="translate(806.034 708.241)"/>
</clipPath>
</defs>
</svg>
