<svg width="1440" height="800" viewBox="0 0 1440 800" fill="none" xmlns="http://www.w3.org/2000/svg">
<g clip-path="url(#clip0_4202_875)">
<rect width="1440" height="800" fill="white"/>
<path fill-rule="evenodd" clip-rule="evenodd" d="M-351 941L210.555 720.171L772 941L544.017 592.317L210.555 82.0001L-123.017 592.317L-351 941Z" fill="#1572D3" fill-opacity="0.1"/>
<path fill-rule="evenodd" clip-rule="evenodd" d="M1238.01 680.988C1202.06 680.988 1167.69 674.126 1136.16 661.574L1022.99 735.949C1084.89 776.479 1158.75 800 1238.01 800C1384.56 800 1512.54 719.584 1581 600.044L1478.98 540.509C1430.84 624.503 1340.96 680.988 1238.01 680.988Z" fill="#1572D3" fill-opacity="0.1"/>
<path fill-rule="evenodd" clip-rule="evenodd" d="M973.695 102.119L1090.23 400.029L973.695 697.881L1157.7 576.934L1427.01 400.029L1157.7 223.066L973.695 102.119Z" fill="#1572D3" fill-opacity="0.1"/>
<path fill-rule="evenodd" clip-rule="evenodd" d="M1238.01 119.012C1340.96 119.012 1430.84 175.497 1478.98 259.491L1581 199.956C1512.48 80.4165 1384.57 0 1238.01 0C1158.69 0 1084.89 23.5208 1022.93 64.0516L1136.16 138.427C1167.69 125.874 1202.01 119.012 1238.01 119.012Z" fill="#1572D3" fill-opacity="0.1"/>
<path fill-rule="evenodd" clip-rule="evenodd" d="M929.098 650.312L983.099 512.706L1027.34 399.971L983.099 287.294L929.098 149.688C874.633 218.198 842 305.242 842 400.029C842 494.758 874.633 581.802 929.098 650.312Z" fill="#1572D3" fill-opacity="0.1"/>
</g>
<defs>
<clipPath id="clip0_4202_875">
<rect width="1440" height="800" fill="white"/>
</clipPath>
</defs>
</svg>
