<svg width="150" height="150" viewBox="0 0 150 150" fill="none" xmlns="http://www.w3.org/2000/svg">
<rect width="150" height="150" rx="75" fill="white"/>
<path d="M93.8334 95.125V90.5417C93.8334 88.1105 92.8676 85.7789 91.1485 84.0599C89.4294 82.3408 87.0978 81.375 84.6667 81.375H66.3334C63.9022 81.375 61.5706 82.3408 59.8515 84.0599C58.1325 85.7789 57.1667 88.1105 57.1667 90.5417V95.125M84.6667 63.0417C84.6667 68.1043 80.5626 72.2083 75.5 72.2083C70.4374 72.2083 66.3334 68.1043 66.3334 63.0417C66.3334 57.9791 70.4374 53.875 75.5 53.875C80.5626 53.875 84.6667 57.9791 84.6667 63.0417Z" stroke="#1E1E1E" stroke-width="4" stroke-linecap="round" stroke-linejoin="round"/>
</svg>
