<svg width="1440" height="864" viewBox="0 0 1440 864" fill="none" xmlns="http://www.w3.org/2000/svg">
<g clip-path="url(#clip0_42_3546)">
<rect width="1440" height="864" transform="translate(0 -0.000488281)" fill="#F7FBFF"/>
<path opacity="0.1" d="M294.324 400V286.782C294.324 234.666 305.547 191.536 327.993 157.391C351.337 123.246 385.006 100.782 429 89.9995V137.173C402.065 144.362 382.761 157.84 371.089 177.608C359.418 196.478 352.684 221.188 350.888 251.739H402.065V400H294.324ZM137 400V286.782C137 234.666 148.223 191.536 170.669 157.391C194.013 123.246 227.682 100.782 271.676 89.9995V137.173C244.74 144.362 225.437 157.84 213.765 177.608C202.093 196.478 195.359 221.188 193.564 251.739H244.74V400H137Z" fill="#1572D3"/>
<path opacity="0.1" d="M1183.68 226.999V118.53C1183.68 68.5995 1172.96 27.2778 1151.51 -5.43526C1129.21 -38.1483 1097.04 -59.6701 1055 -70.0005V-24.8049C1080.74 -17.9179 1099.18 -5.00486 1110.33 13.9343C1121.48 32.0126 1127.92 55.6865 1129.63 84.956H1080.74V226.999H1183.68ZM1334 226.999V118.53C1334 68.5995 1323.28 27.2778 1301.83 -5.43526C1279.53 -38.1483 1247.36 -59.6701 1205.32 -70.0005V-24.8049C1231.06 -17.9179 1249.5 -5.00486 1260.65 13.9343C1271.8 32.0126 1278.24 55.6865 1279.95 84.956H1231.06V226.999H1334Z" fill="#1572D3"/>
</g>
<defs>
<clipPath id="clip0_42_3546">
<rect width="1440" height="864" fill="white" transform="translate(0 -0.000488281)"/>
</clipPath>
</defs>
</svg>
